<svg xmlns="http://www.w3.org/2000/svg" width="512" height="512" viewBox="0 0 512 512" version="1.1">
	<path d="M 197.578 1.750 C 197.272 2.712, 196.005 4.625, 194.761 6 C 192.739 8.236, 190.264 13.403, 189.626 16.721 C 189.497 17.393, 189.078 18.255, 188.696 18.638 C 188.313 19.020, 188 20.424, 188 21.757 C 188 23.183, 186.799 25.234, 185.084 26.739 C 181.844 29.582, 169.888 35, 166.855 35 C 164.511 35, 149.640 41.810, 149.165 43.101 C 148.980 43.602, 148.418 43.758, 147.915 43.447 C 147.412 43.136, 147 43.353, 147 43.929 C 147 44.505, 147.994 44.869, 149.209 44.738 C 152.894 44.341, 152.405 47.490, 148.075 52.041 C 145.857 54.373, 143.094 58.240, 141.935 60.635 C 140.775 63.030, 139.416 65.243, 138.913 65.553 C 138.411 65.864, 138 67.441, 138 69.059 C 138 73.481, 132.408 78.088, 130.598 75.158 C 130.311 74.695, 129.661 71.662, 129.152 68.417 C 128.292 62.934, 128.398 62.316, 130.655 59.634 C 131.990 58.047, 132.922 56.588, 132.725 56.392 C 131.972 55.638, 126 58.498, 126 59.612 C 126 60.258, 125.383 61.023, 124.628 61.312 C 123.372 61.795, 119 69.620, 119 71.387 C 119 71.803, 119.675 72.818, 120.500 73.643 C 122.722 75.865, 122.333 77.744, 119.250 79.687 C 117.737 80.640, 115.401 82.475, 114.059 83.765 C 112.716 85.055, 109.712 86.620, 107.384 87.242 C 104.606 87.985, 102.788 89.170, 102.097 90.687 C 101.517 91.959, 100.583 93, 100.021 93 C 99.460 93, 99 93.604, 99 94.341 C 99 95.079, 96.168 98.402, 92.707 101.726 C 80.412 113.532, 77.689 118.797, 77.174 131.750 C 76.758 142.224, 77.576 143.216, 81.500 137 C 82.889 134.800, 84.132 133.001, 84.263 133.003 C 84.393 133.004, 84.561 139.452, 84.636 147.332 C 84.774 161.799, 85.526 165.296, 89.512 170 C 91.287 172.094, 96 184.226, 96 186.701 C 96 189.219, 99.377 196.994, 102.416 201.472 C 104.501 204.544, 104.602 205.326, 103.713 211.510 C 103.042 216.176, 103.087 219.348, 103.862 221.934 C 104.700 224.731, 104.680 226.279, 103.781 228.184 C 102.590 230.707, 102.522 230.719, 85.332 231.408 C 75.842 231.789, 67.273 232.252, 66.289 232.438 C 65.305 232.623, 55.050 233.057, 43.500 233.401 C 31.950 233.745, 17.438 234.290, 11.250 234.612 L 0 235.197 0 243.599 L 0 252 6.250 252.118 C 9.688 252.184, 12.900 252.163, 13.389 252.072 C 19.825 250.879, 73.891 249.407, 72.867 250.453 C 72.519 250.808, 69.819 251.283, 66.867 251.510 C 63.915 251.736, 61.500 251.969, 61.500 252.029 C 61.500 252.458, 53.454 253.024, 42 253.403 C 34.575 253.649, 24.450 254.117, 19.500 254.443 C 14.550 254.769, 8.250 255.140, 5.500 255.268 L 0.500 255.500 0.246 383.752 L -0.008 512.004 256.246 511.752 L 512.500 511.500 512.508 383 C 512.513 312.325, 512.398 288.543, 512.252 330.150 L 511.987 405.800 507.244 404.402 C 504.635 403.632, 501.600 402.593, 500.500 402.092 C 496.672 400.349, 494.492 399.686, 493.250 399.886 C 492.563 399.997, 492 399.618, 492 399.044 C 492 398.470, 490.970 398, 489.711 398 C 488.453 398, 485.658 397.100, 483.500 396 C 481.342 394.900, 478.756 394, 477.753 394 C 476.750 394, 474.849 393.292, 473.527 392.426 C 472.206 391.560, 468.960 390.240, 466.313 389.491 C 463.666 388.742, 459.700 387.444, 457.500 386.606 C 448.093 383.022, 439.180 379.813, 434.793 378.431 C 432.204 377.615, 429.815 376.510, 429.484 375.974 C 429.153 375.438, 428.121 374.990, 427.191 374.978 C 426.261 374.966, 424.375 374.076, 423 373 C 421.625 371.924, 419.498 371.034, 418.273 371.022 C 415.117 370.991, 413.273 367.476, 412.644 360.298 C 412.346 356.887, 411.403 352.747, 410.551 351.098 C 408.601 347.328, 408.570 345, 410.470 345 C 412.656 345, 419.164 341.115, 421.871 338.195 C 424.064 335.828, 424.194 335.094, 423.593 328.461 C 423.235 324.515, 422.537 319.872, 422.041 318.143 C 420.903 314.175, 420.820 300.937, 421.924 299.546 C 423.012 298.175, 424.822 287.420, 425.923 275.792 C 426.925 265.201, 425.203 250.986, 422.565 248.071 C 420.568 245.865, 420.528 236.450, 422.500 233 C 423.286 231.625, 423.945 229.557, 423.965 228.404 C 423.984 227.251, 424.720 224.864, 425.600 223.099 C 426.481 221.334, 427.592 216.653, 428.070 212.695 C 428.548 208.738, 429.411 202.800, 429.988 199.500 C 431.581 190.395, 431.936 156.234, 430.482 152 C 429.821 150.075, 428.949 145.829, 428.545 142.565 C 428.141 139.301, 427.384 135.511, 426.864 134.143 C 426.344 132.774, 426.231 130.945, 426.613 130.078 C 429.163 124.285, 428.127 121.052, 419.526 107.966 C 415.919 102.478, 412 95.854, 410.816 93.244 C 407.269 85.425, 399.918 70.609, 399.046 69.518 C 398.598 68.958, 397.919 67.043, 397.539 65.261 C 397.158 63.480, 396.385 61.738, 395.821 61.389 C 395.257 61.041, 394.177 59.274, 393.420 57.464 C 392.240 54.638, 390.306 53.324, 379.772 48.189 C 373.023 44.898, 362.419 40.508, 356.210 38.433 C 347.637 35.568, 344.992 34.279, 345.222 33.080 C 345.436 31.961, 347.126 31.327, 351.012 30.908 C 359.659 29.976, 364 28.989, 364 27.955 C 364 26.872, 363.429 26.821, 349 26.619 C 339.592 26.487, 331.668 24.936, 330 22.900 C 329.725 22.565, 327.700 21.730, 325.500 21.046 C 319.510 19.182, 312.772 15.943, 310.333 13.753 C 308.631 12.225, 305.627 11.578, 296.333 10.739 C 281.429 9.393, 259.840 9.234, 249.777 10.397 C 241.463 11.357, 239 10.553, 239 6.878 C 239 5.845, 238.622 5, 238.161 5 C 237.699 5, 236.808 3.875, 236.182 2.500 L 235.043 -0 216.589 -0 C 199.892 -0, 198.082 0.167, 197.578 1.750 M 213.732 3.707 C 211.641 5.143, 209.688 7.453, 209.344 8.897 C 209.003 10.329, 208.313 12.024, 207.811 12.664 C 207.272 13.351, 207.258 15.195, 207.777 17.164 L 208.655 20.500 217.077 20.139 C 228.985 19.628, 233.750 16.764, 231.139 11.686 C 225.683 1.076, 220.815 -1.156, 213.732 3.707 M 368.638 29.500 C 368.955 30.325, 370.403 30.997, 371.857 30.994 L 374.500 30.988 371.636 29.494 C 368.088 27.644, 367.926 27.644, 368.638 29.500 M 191.750 142.777 C 190.787 142.980, 190 143.541, 190 144.024 C 190 144.506, 187.290 145.207, 183.978 145.582 C 180.665 145.957, 177.722 146.641, 177.437 147.103 C 177.151 147.564, 174.676 148.239, 171.936 148.603 C 169.197 148.966, 166.714 149.654, 166.419 150.132 C 166.123 150.609, 165.096 151, 164.135 151 C 163.175 151, 160.864 152.125, 159 153.500 C 157.136 154.875, 154.836 156, 153.887 156 C 152.939 156, 151.217 157.530, 150.061 159.401 C 148.905 161.271, 147.294 163.057, 146.480 163.369 C 145.666 163.682, 145 164.626, 145 165.469 C 145 166.311, 144.572 167, 144.048 167 C 142.697 167, 137 175.523, 137 177.544 C 137 178.992, 134.936 183.630, 131.903 189 C 131.437 189.825, 130.317 191.963, 129.414 193.750 C 128.511 195.537, 127.373 197, 126.886 197 C 126.399 197, 126 197.418, 126 197.929 C 126 198.440, 124.293 201.478, 122.206 204.679 C 118.535 210.312, 115 219.612, 115 223.638 C 115 224.717, 114.611 226.027, 114.136 226.550 C 112.845 227.970, 111 236.345, 111 240.789 C 111 242.936, 110.234 246.224, 109.298 248.096 C 107.919 250.854, 107.467 255.803, 106.914 274.157 C 106.540 286.619, 105.947 297.277, 105.597 297.843 C 103.445 301.325, 102.983 331.866, 104.974 339 C 105.665 341.475, 106.593 348, 107.037 353.500 C 108.039 365.922, 111.226 383.521, 113.299 388.074 C 114.157 389.958, 115.662 394.200, 116.643 397.500 C 117.625 400.800, 119.232 404.976, 120.214 406.780 C 121.196 408.585, 122 410.475, 122 410.980 C 122 411.486, 123.379 413.943, 125.065 416.441 C 126.750 418.938, 127.847 421.439, 127.501 421.998 C 127.156 422.557, 127.577 423.284, 128.437 423.614 C 129.296 423.944, 130 425.028, 130 426.023 C 130 427.018, 131.819 429.783, 134.043 432.166 C 136.266 434.550, 138.326 437.455, 138.619 438.622 C 138.912 439.789, 140.293 441.354, 141.688 442.101 C 143.082 442.847, 144.601 444.450, 145.062 445.663 C 145.689 447.313, 146.679 447.847, 148.986 447.781 C 150.683 447.733, 152.311 447.305, 152.605 446.830 C 152.898 446.356, 153.634 446.274, 154.239 446.648 C 154.939 447.080, 155.116 446.745, 154.726 445.729 C 154.389 444.849, 154.519 443.988, 155.017 443.815 C 155.515 443.642, 156.171 441.503, 156.475 439.063 C 156.780 436.623, 157.623 433.923, 158.349 433.063 C 159.865 431.270, 160.550 422.675, 159.330 420.774 C 158.880 420.073, 157.975 416.378, 157.320 412.563 L 156.128 405.626 159.152 401.808 C 160.815 399.709, 162.586 398.244, 163.088 398.554 C 163.590 398.864, 164 398.615, 164 398 C 164 397.385, 164.422 397.143, 164.939 397.462 C 165.455 397.781, 166.341 397.245, 166.908 396.271 C 167.475 395.297, 167.960 394.950, 167.985 395.500 C 168.014 396.132, 168.301 396.117, 168.765 395.458 C 170.190 393.437, 199.571 396.727, 201.084 399.076 C 201.871 400.299, 202.135 400.290, 202.958 399.008 C 203.647 397.937, 204.222 397.822, 205.001 398.601 C 206.352 399.952, 204.120 402.040, 201.080 402.269 C 198.624 402.454, 198.551 402.694, 200.390 404.533 C 201.304 405.447, 205.496 406.158, 212.640 406.610 C 218.685 406.993, 223.816 407.786, 224.214 408.399 C 225.447 410.302, 233.971 409.376, 236.423 407.072 C 237.636 405.932, 239.612 405, 240.814 405 C 242.630 405, 242.987 404.449, 242.921 401.750 C 242.878 399.962, 242.615 399.063, 242.338 399.750 C 242.060 400.438, 240.333 401, 238.498 401 C 234.173 401, 232 401.872, 232 403.607 C 232 404.473, 230.960 404.979, 229.250 404.945 C 226.304 404.885, 220.908 399.363, 222.615 398.155 C 224.115 397.093, 226.071 392, 224.979 392 C 224.440 392, 224 391.348, 224 390.552 C 224 388.590, 228.665 390.207, 232.044 393.340 L 234.518 395.634 236.898 393.402 C 238.583 391.821, 239.105 390.509, 238.687 388.910 C 238.298 387.424, 238.669 386.231, 239.771 385.426 C 243.509 382.692, 236.422 376.750, 231.620 378.592 C 230.849 378.888, 226.768 377.493, 222.552 375.493 C 214.698 371.766, 208.730 371.062, 204.806 373.401 C 203.554 374.147, 202.620 373.966, 201.227 372.706 C 200.191 371.768, 199.010 371, 198.604 371 C 197.145 371, 190.036 364.470, 190.018 363.115 C 189.978 360.037, 195.185 356.794, 201.015 356.265 C 206.057 355.808, 206.936 356.015, 208.904 358.125 C 210.916 360.282, 211.863 360.484, 219.205 360.324 C 223.652 360.227, 227.563 359.752, 227.896 359.269 C 228.228 358.785, 230.525 357.444, 233 356.288 C 236.812 354.508, 239.338 354.194, 249.524 354.232 C 256.138 354.257, 262.458 353.990, 263.568 353.637 C 265.519 353.018, 268.514 345.425, 267.061 344.784 C 266.707 344.628, 265.154 342.825, 263.610 340.777 C 261.667 338.200, 259.738 336.854, 257.342 336.404 C 254.966 335.959, 254.046 335.323, 254.409 334.377 C 254.750 333.487, 254.221 333, 252.910 333 C 251.794 333, 251.139 332.584, 251.454 332.075 C 252.147 330.952, 250.016 326, 248.839 326 C 247.307 326, 247.970 322.852, 250.176 319.654 C 251.373 317.919, 252.418 316.392, 252.499 316.260 C 252.864 315.664, 257.985 318.601, 257.992 319.411 C 258.002 320.497, 264.005 326, 265.180 326 C 265.631 326, 266 326.563, 266 327.252 C 266 327.940, 267.953 329.540, 270.341 330.806 C 274.756 333.149, 285 344.798, 285 347.477 C 285 348.259, 286.518 350.056, 288.372 351.470 C 291.140 353.581, 291.841 354.891, 292.279 358.771 C 292.928 364.506, 291.054 369.563, 287.717 371.083 C 285.639 372.030, 282 376.690, 282 378.404 C 282 378.732, 282.684 379, 283.519 379 C 284.641 379, 284.874 379.655, 284.410 381.503 C 283.860 383.694, 284.167 384.083, 286.875 384.625 C 288.576 384.965, 289.764 385.573, 289.515 385.976 C 289.054 386.721, 301.033 387.902, 311 388.094 C 315.024 388.171, 315.829 388.393, 314 388.923 C 311.609 389.614, 311.652 389.677, 315 390.353 C 316.925 390.742, 319.297 391.074, 320.272 391.091 C 321.246 391.107, 321.785 391.539, 321.470 392.049 C 321.154 392.560, 321.638 392.692, 322.549 392.343 C 323.485 391.983, 324.585 392.314, 325.086 393.104 C 325.572 393.872, 325.976 394.028, 325.985 393.451 C 325.994 392.835, 327.500 392.577, 329.636 392.826 C 332.412 393.150, 333.085 392.947, 332.480 391.968 C 331.898 391.025, 332.259 390.835, 333.845 391.249 C 335.117 391.582, 335.756 391.414, 335.401 390.840 C 335.070 390.304, 335.632 390.009, 336.650 390.183 C 337.718 390.366, 338.394 389.972, 338.250 389.250 C 338.103 388.517, 339.033 388, 340.500 388 C 341.875 388, 343.034 387.438, 343.077 386.750 C 343.119 386.063, 343.304 384.712, 343.488 383.750 C 343.862 381.794, 342.392 381.324, 341.767 383.199 C 341.517 383.950, 341.123 383.762, 340.715 382.699 C 340.207 381.376, 340.623 381, 342.590 381 C 344.127 381, 344.859 380.582, 344.458 379.933 C 344.096 379.346, 344.739 378.620, 345.888 378.319 C 347.037 378.018, 347.726 377.366, 347.420 376.870 C 347.113 376.374, 346.474 376.207, 346 376.500 C 345.526 376.793, 344.813 376.506, 344.415 375.862 C 343.979 375.157, 344.123 374.958, 344.776 375.362 C 345.373 375.731, 346.163 375.545, 346.532 374.948 C 346.901 374.352, 347.817 374.100, 348.569 374.388 C 349.321 374.677, 350.181 374.516, 350.480 374.032 C 350.780 373.548, 350.381 373.005, 349.595 372.826 C 348.368 372.546, 348.359 371.941, 349.526 368.571 C 350.275 366.411, 351.588 364.251, 352.444 363.772 C 353.300 363.293, 354 362.221, 354 361.391 C 354 360.561, 353.592 360.134, 353.093 360.442 C 351.777 361.256, 353.055 357.023, 355.247 353.306 C 356.572 351.061, 357.631 350.292, 358.815 350.716 C 359.742 351.047, 360.184 350.968, 359.798 350.540 C 359.411 350.112, 359.636 349.156, 360.298 348.416 C 364.232 344.011, 364.432 343.644, 363.138 343.213 C 362.265 342.922, 362.516 342.327, 363.930 341.337 C 365.068 340.539, 365.993 338.900, 365.985 337.693 C 365.972 335.911, 365.788 335.781, 365 337 C 364.220 338.207, 364.028 338.049, 364.015 336.191 C 364.007 334.921, 364.400 334.129, 364.888 334.431 C 365.376 334.733, 365.973 333.634, 366.215 331.990 C 366.514 329.952, 366.231 329, 365.327 329 C 364.578 329, 364 327.911, 364 326.500 C 364 325.125, 364.382 324, 364.848 324 C 365.314 324, 365.734 322.650, 365.781 321 C 365.828 319.350, 365.499 318, 365.050 318 C 364.601 318, 363.998 317.100, 363.710 316 C 363.423 314.900, 363.584 314, 364.069 314 C 365.174 314, 364.016 307.718, 362.757 306.888 C 362.247 306.552, 361.855 305.994, 361.887 305.649 C 362.178 302.507, 360.666 302.091, 349.804 302.328 C 341.534 302.508, 338.503 302.934, 337.641 304.034 C 336.024 306.099, 334.611 306.371, 325 306.474 C 319.519 306.532, 315.736 306.091, 314.350 305.233 C 312.593 304.144, 312.090 304.138, 311.600 305.200 C 311.127 306.225, 310.877 306.235, 310.417 305.250 C 310.096 304.563, 309.083 304.007, 308.167 304.015 C 306.716 304.029, 306.694 304.167, 308 305.087 C 309.101 305.862, 308.279 305.981, 304.912 305.534 C 302.389 305.200, 299.127 305.382, 297.662 305.938 C 295.843 306.630, 295 306.623, 295 305.916 C 295 305.347, 294.581 305.141, 294.069 305.457 C 293.557 305.774, 291.870 304.841, 290.319 303.384 C 288.769 301.927, 286.150 300.155, 284.500 299.445 C 280.397 297.682, 277.604 294.877, 275.959 290.871 C 275.199 289.017, 273.547 286.680, 272.288 285.677 C 270.818 284.506, 270 282.783, 270 280.856 C 270 279.207, 269.309 277.167, 268.465 276.323 C 267.421 275.278, 267.246 274.408, 267.919 273.598 C 268.462 272.943, 268.832 271.416, 268.740 270.204 C 268.613 268.506, 267.942 268, 265.822 268 C 261.972 268, 259.997 272.256, 258.322 284.166 C 258.038 286.182, 257.062 288.681, 256.153 289.720 C 255.244 290.759, 254.004 292.485, 253.398 293.555 C 251.998 296.026, 248.194 296.669, 247.389 294.570 C 247.057 293.707, 246.358 293, 245.834 293 C 245.310 293, 245.220 293.563, 245.633 294.250 C 246.140 295.094, 245.832 295.052, 244.686 294.123 C 243.100 292.836, 243.120 292.630, 244.994 291.005 C 246.976 289.287, 247.814 287.379, 246.131 288.419 C 245.320 288.920, 244.686 282.416, 244.701 273.750 C 244.705 271.688, 244.323 270, 243.854 270 C 243.384 270, 243 269.341, 243 268.535 C 243 267.730, 242.100 266.589, 241 266 C 239.900 265.411, 239 264.339, 239 263.618 C 239 261.986, 235.625 258, 234.244 258 C 233.046 258, 231.623 251.419, 232.511 249.983 C 232.845 249.442, 232.704 249, 232.198 249 C 231.004 249, 231.921 244.167, 233.274 243.331 C 233.922 242.930, 234.009 243.216, 233.508 244.095 C 232.860 245.232, 232.964 245.261, 234.053 244.250 C 234.794 243.563, 236.180 243, 237.133 243 C 238.086 243, 239.151 242.101, 239.499 241.002 C 239.848 239.904, 241.255 238.723, 242.626 238.379 C 244.092 238.011, 244.917 237.226, 244.629 236.475 C 244.213 235.392, 246.240 234.156, 249.286 233.635 C 249.719 233.561, 250.394 233.038, 250.786 232.472 C 251.785 231.035, 259.090 227.924, 262.292 227.572 C 263.758 227.411, 265.530 226.822, 266.229 226.262 C 266.928 225.703, 268.623 224.899, 269.996 224.477 C 271.369 224.055, 272.971 223.054, 273.557 222.253 C 274.142 221.452, 275.944 220.650, 277.561 220.471 C 283.591 219.802, 285.054 218.921, 284.769 216.128 C 284.614 214.611, 283.255 212.549, 281.556 211.250 C 279.936 210.012, 278.994 209, 279.461 209 C 279.928 209, 279.495 208.100, 278.500 207 C 277.505 205.900, 276.247 205, 275.705 205 C 275.164 205, 274.145 204.213, 273.441 203.250 C 272.737 202.287, 271.675 201.444, 271.081 201.375 C 270.486 201.306, 269.325 201.194, 268.500 201.125 C 267.675 201.056, 267 200.473, 267 199.829 C 267 198.412, 258.387 190, 256.937 190 C 255.172 190, 251 185.186, 251 183.149 C 251 182.081, 249.409 179.811, 247.465 178.104 C 244.655 175.637, 243.027 175, 239.524 175 C 237.101 175, 234.840 175.450, 234.500 176 C 234.160 176.550, 233.201 177, 232.370 177 C 231.538 177, 230.182 177.675, 229.357 178.500 C 228.532 179.325, 226.288 180, 224.370 180 C 222.299 180, 221.133 180.406, 221.500 181 C 221.840 181.550, 221.623 182, 221.019 182 C 219.833 182, 219.868 173.866, 221.057 173 C 221.434 172.725, 221.208 169.114, 220.553 164.976 C 219.456 158.037, 218.998 157.075, 214.672 152.623 C 210.832 148.672, 209.301 147.769, 206.240 147.648 C 203.852 147.553, 202.260 146.919, 201.835 145.893 C 201.123 144.171, 194.636 142.167, 191.750 142.777 M 219.235 187.512 C 218.540 188.301, 217.538 190.084, 217.010 191.474 C 216.231 193.522, 216.352 194, 217.647 194 C 218.788 194, 218.961 194.358, 218.253 195.250 C 217.553 196.132, 217.933 197.147, 219.543 198.699 C 221.581 200.662, 221.894 200.719, 222.466 199.227 C 222.967 197.922, 223.284 197.842, 223.916 198.863 C 224.360 199.582, 225.011 200.132, 225.362 200.085 C 227.040 199.861, 227.153 200.111, 226 201.500 C 225.306 202.337, 225.197 203, 225.755 203 C 226.305 203, 227.311 202.330, 227.991 201.511 C 228.671 200.692, 229.695 200.312, 230.268 200.666 C 230.878 201.042, 231.009 200.824, 230.585 200.138 C 230.187 199.494, 229.443 199.226, 228.931 199.543 C 228.419 199.859, 228 199.694, 228 199.176 C 228 198.657, 228.934 197.989, 230.075 197.691 C 231.779 197.245, 231.965 196.802, 231.113 195.211 C 230.543 194.146, 228.748 192.724, 227.125 192.052 C 225.407 191.340, 223.921 189.821, 223.568 188.415 C 222.890 185.715, 221.140 185.350, 219.235 187.512 M 152.331 217.069 C 151.743 217.657, 150.415 218.263, 149.381 218.415 C 148.163 218.593, 147.500 219.504, 147.500 220.998 C 147.500 222.736, 148.718 223.961, 152.443 225.969 C 155.452 227.592, 157.995 229.858, 158.943 231.761 C 159.799 233.481, 161.625 235.467, 163 236.174 C 164.375 236.881, 166.850 238.437, 168.500 239.631 C 172.191 242.304, 177.386 243.726, 181.939 243.309 C 183.924 243.127, 185.714 243.524, 186.174 244.247 C 186.809 245.247, 186.972 245.247, 186.985 244.250 C 186.993 243.563, 187.675 243, 188.500 243 C 189.325 243, 190 243.450, 190 244 C 190 244.550, 190.599 245, 191.331 245 C 192.063 245, 193.253 246.103, 193.974 247.452 C 194.696 248.801, 195.560 249.873, 195.893 249.834 C 198.084 249.579, 199.139 250.196, 198.658 251.450 C 198.280 252.434, 199.388 253.468, 202.110 254.669 C 205.324 256.087, 206.011 256.840, 205.573 258.469 C 205.273 259.586, 204.986 261.625, 204.935 263 C 204.877 264.563, 204.628 264.938, 204.271 264 C 203.957 263.175, 203.205 262.169, 202.600 261.765 C 201.839 261.257, 201.885 261.026, 202.750 261.015 C 203.438 261.007, 204 260.550, 204 260 C 204 259.450, 203.073 259, 201.941 259 C 200.809 259, 200.160 258.550, 200.500 258 C 201.066 257.084, 199.700 256.555, 197.676 256.906 C 197.222 256.985, 197.107 256.636, 197.419 256.131 C 198.113 255.008, 195.100 254.306, 188.564 254.068 C 185.850 253.970, 183.283 253.675, 182.860 253.414 C 181.430 252.530, 177 254.207, 177 255.633 C 177 256.413, 175.681 257.314, 174.069 257.636 C 171.241 258.202, 167.579 260.852, 166.852 262.860 C 166.404 264.098, 147.441 269.162, 144.050 268.948 C 140.070 268.698, 139 268.921, 139 270 C 139 270.550, 139.879 271, 140.953 271 C 142.027 271, 143.940 271.402, 145.203 271.894 C 146.466 272.385, 150.145 273.623, 153.377 274.644 C 156.610 275.665, 159.470 277.063, 159.734 277.750 C 159.998 278.438, 160.841 279, 161.607 279 C 163.665 279, 167 282.702, 167 284.987 C 167 287.177, 174.538 292.623, 176.894 292.135 C 177.660 291.976, 178.607 292.363, 178.997 292.995 C 179.867 294.402, 184.845 295.060, 185.583 293.865 C 185.877 293.389, 187.237 293, 188.604 293 C 189.972 293, 192.223 291.868, 193.607 290.484 C 194.991 289.100, 197.237 287.875, 198.598 287.763 C 200.247 287.626, 201.264 286.796, 201.646 285.276 C 201.961 284.021, 203.570 281.857, 205.221 280.467 C 208.779 277.474, 210.197 272.415, 209.348 265.750 C 208.842 261.780, 209.010 261, 210.371 261 C 211.267 261, 212 260.325, 212 259.500 C 212 258.675, 212.718 258, 213.596 258 C 215.103 258, 220.075 254.945, 222.697 252.407 C 224.173 250.979, 223.989 247, 222.447 247 C 221.827 247, 220.720 245.088, 219.986 242.750 C 219.253 240.412, 218.280 238.072, 217.826 237.550 C 217.372 237.027, 217 235.965, 217 235.190 C 217 233.033, 208.365 225, 206.047 225 C 204.921 225, 204 224.594, 204 224.098 C 204 222.648, 198.338 221.018, 185.500 218.774 C 172.512 216.503, 172.641 216.510, 162.887 217.548 C 158.364 218.029, 156.054 217.896, 155.578 217.126 C 154.705 215.714, 153.703 215.697, 152.331 217.069 M 92.500 249 C 92.160 249.550, 92.610 250, 93.500 250 C 94.390 250, 94.840 249.550, 94.500 249 C 94.160 248.450, 93.710 248, 93.500 248 C 93.290 248, 92.840 248.450, 92.500 249 M 0.485 384 C 0.485 454.675, 0.604 483.587, 0.750 448.250 C 0.896 412.912, 0.896 355.087, 0.750 319.750 C 0.604 284.412, 0.485 313.325, 0.485 384 M 247.583 315.866 C 247.152 316.563, 247.070 317.403, 247.400 317.733 C 248.295 318.628, 249.271 317.312, 248.787 315.862 C 248.449 314.846, 248.213 314.846, 247.583 315.866 M 180.325 355.658 C 180.687 356.020, 180.481 356.920, 179.869 357.658 C 178.997 358.709, 179.215 359, 180.878 359 C 182.333 359, 183 358.372, 183 357 C 183 355.800, 182.333 355, 181.333 355 C 180.417 355, 179.963 355.296, 180.325 355.658 M 351.881 371.219 C 352.342 373.996, 352.482 374.136, 352.797 372.135 C 353.002 370.834, 352.757 369.357, 352.253 368.853 C 351.698 368.298, 351.552 369.231, 351.881 371.219 M 191.361 417.765 C 190.734 418.169, 189.670 420.346, 188.996 422.603 C 188.022 425.866, 188.029 427.186, 189.029 429.055 C 189.953 430.780, 189.983 431.506, 189.143 431.786 C 188.515 431.995, 188 433.254, 188 434.583 C 188 435.913, 187.550 437, 187 437 C 186.450 437, 185.994 438.238, 185.986 439.750 C 185.966 443.882, 184.854 447.381, 184 446 C 182.956 444.310, 181.825 455.932, 182.529 461.111 C 183.513 468.342, 184.014 470.109, 184.925 469.547 C 185.867 468.964, 187 471.239, 187 473.714 C 187 474.566, 188.485 476.667, 190.300 478.382 C 192.115 480.097, 193.901 482.288, 194.269 483.250 C 194.741 484.486, 196.047 485.004, 198.719 485.014 C 203.971 485.033, 207 485.985, 207 487.617 C 207 488.377, 207.450 489, 208 489 C 208.550 489, 209 489.675, 209 490.500 C 209 491.633, 210.222 492, 214 492 C 216.750 492, 219 491.550, 219 491 C 219 490.450, 220.380 490, 222.067 490 C 224.529 490, 225.027 489.655, 224.590 488.250 C 224.291 487.288, 224.485 485.825, 225.023 485 C 225.891 483.667, 226.109 483.667, 226.985 485 C 227.828 486.284, 227.972 486.248, 227.985 484.750 C 227.994 483.662, 227.244 483, 226 483 C 224.677 483, 224 482.333, 224 481.029 C 224 478.255, 217.959 470, 215.930 470 C 211.043 470, 202.824 464.162, 201.399 459.678 C 200.533 456.954, 203.757 454, 207.596 454 C 209.403 454, 211.158 453.554, 211.494 453.009 C 212.339 451.643, 209.190 447.695, 205.139 445.040 C 200.401 441.933, 202.125 440.885, 212.640 440.478 C 230.422 439.790, 237.450 438.616, 236.627 436.470 C 236.322 435.675, 236.393 435.131, 236.786 435.262 C 238.052 435.684, 242.229 430.829, 241.350 429.958 C 240.882 429.495, 237.575 428.599, 234 427.967 C 230.425 427.335, 225.475 426.389, 223 425.864 C 220.525 425.340, 217.197 424.645, 215.604 424.320 C 214.011 423.996, 211.859 423.003, 210.821 422.115 C 209.784 421.227, 208.709 420.633, 208.432 420.795 C 208.156 420.957, 206.760 420.169, 205.330 419.045 C 202.682 416.962, 193.859 416.154, 191.361 417.765" stroke="none" fill="black" fill-rule="evenodd"/>
</svg>